<?xml version="1.0" encoding="utf-8"?><svg width="17" height="17" fill="none" xmlns="http://www.w3.org/2000/svg" viewBox="0 0 17 17"><path d="M11.688 0H5.311C2.38 0 0 2.294 0 5.122v6.146c0 2.828 2.379 5.122 5.313 5.122h6.375c2.933 0 5.312-2.294 5.312-5.122V5.122C17 2.294 14.621 0 11.687 0zm3.718 11.268c0 1.977-1.668 3.585-3.719 3.585H5.314c-2.051 0-3.72-1.608-3.72-3.585V5.122c0-1.977 1.669-3.585 3.72-3.585h6.375c2.05 0 3.718 1.608 3.718 3.585v6.146z" fill="#fff"/><path d="M8.5 4.098c-2.347 0-4.25 1.834-4.25 4.097 0 2.263 1.903 4.098 4.25 4.098s4.25-1.835 4.25-4.098-1.903-4.098-4.25-4.098zm0 6.658c-1.464 0-2.656-1.15-2.656-2.561 0-1.413 1.192-2.56 2.656-2.56 1.464 0 2.656 1.147 2.656 2.56 0 1.412-1.192 2.56-2.656 2.56zM13.069 4.336a.556.556 0 00.566-.546.556.556 0 00-.566-.546.556.556 0 00-.567.546c0 .302.254.546.567.546z" fill="#fff"/></svg>