<?xml version="1.0" encoding="utf-8"?><svg width="19" height="11" fill="none" xmlns="http://www.w3.org/2000/svg" viewBox="0 0 19 11"><path d="M18.174 8.412c-.414-.436-.884-.827-1.338-1.204-.162-.135-.33-.274-.49-.412-.463-.397-.48-.546-.114-.997.254-.31.523-.622.782-.923.236-.273.48-.556.713-.84l.048-.057c.447-.543.908-1.103 1.154-1.78.064-.178.13-.44-.022-.66-.154-.22-.45-.287-.66-.318a2.051 2.051 0 00-.303-.017l-2.924-.002h-.024c-.442 0-.74.182-.91.559-.164.36-.343.742-.547 1.106-.406.725-.923 1.56-1.67 2.256l-.031.03c-.089.082-.189.177-.262.177a.14.14 0 01-.037-.006c-.155-.053-.258-.382-.254-.535v-.006l-.002-2.966c0-.01 0-.02-.002-.031-.074-.482-.24-.782-.862-.89a.292.292 0 00-.05-.004H7.33c-.495 0-.768.177-1.024.442-.07.07-.214.217-.142.396.072.181.307.22.384.232.38.064.595.268.655.625.106.62.12 1.281.041 2.081a1.57 1.57 0 01-.135.541c-.017.035-.075.146-.135.146-.019 0-.073-.006-.173-.066-.236-.142-.408-.345-.61-.595a13.554 13.554 0 01-1.756-2.86 1.039 1.039 0 00-.97-.623c-.485-.007-.925-.01-1.344-.01-.459 0-.884.004-1.299.011-.355.006-.6.1-.73.278-.13.18-.12.415.025.7 1.17 2.283 2.23 3.942 3.44 5.382.846 1.007 1.695 1.704 2.672 2.194 1.029.516 2.182.768 3.525.768.152 0 .31-.004.468-.01.78-.034 1.07-.282 1.107-.949.017-.34.06-.698.25-1.003.121-.192.234-.192.27-.192.072 0 .16.029.254.083.17.097.316.227.435.341.113.108.224.218.335.327.24.236.488.48.748.712.567.507 1.193.73 1.91.681h2.698a.796.796 0 00.635-.357c.169-.262.165-.596-.01-.894a4.842 4.842 0 00-.679-.86z" fill="#fff"/></svg>