<?xml version="1.0" encoding="utf-8"?><svg width="21" height="15" fill="none" xmlns="http://www.w3.org/2000/svg" viewBox="0 0 21 15"><path d="M19.88 2.473c.071.286.13.644.178 1.073.072.43.12.859.144 1.288.023.405.035.787.035 1.145.024.357.036.655.036.894v.322c0 2.146-.131 3.732-.393 4.758-.12.405-.334.763-.644 1.073-.31.31-.68.524-1.11.644-.452.119-1.31.214-2.575.286-1.264.048-2.42.083-3.47.107h-1.574c-4.078 0-6.618-.131-7.62-.393-.93-.263-1.514-.835-1.752-1.717-.12-.454-.215-1.074-.286-1.86C.8 9.281.765 8.601.74 8.052v-.858c0-2.123.131-3.697.394-4.722.119-.43.334-.8.644-1.11.31-.31.68-.524 1.109-.643C3.34.6 4.199.517 5.463.47 6.727.398 7.883.35 8.933.326h1.574c4.078 0 6.618.132 7.62.394.429.12.799.334 1.109.644.31.31.524.68.644 1.109zM8.504 10.128l5.115-2.933-5.115-2.898v5.831z" fill="#fff"/></svg>