<?xml version="1.0" encoding="utf-8"?><svg viewBox="0 0 60 60" xmlns="http://www.w3.org/2000/svg" xmlns:xlink="http://www.w3.org/1999/xlink"><style>:root>svg{display:none}:root>svg:target{display:block}</style><svg fill="none" viewBox="0 0 43 26" id="burger" xmlns="http://www.w3.org/2000/svg"><path stroke="#fff" stroke-width="2" d="M0 1h43M0 13h43M22 25h21"/></svg><svg fill="none" viewBox="0 0 60 60" id="close" xmlns="http://www.w3.org/2000/svg"><path stroke="#fff" stroke-width="2" d="M15.556 14.142l29.698 29.699M14.849 44.548l29.698-29.699"/></svg><svg fill="none" viewBox="0 0 17 17" id="instagram-17" xmlns="http://www.w3.org/2000/svg"><path d="M11.688 0H5.311C2.38 0 0 2.294 0 5.122v6.146c0 2.828 2.379 5.122 5.313 5.122h6.375c2.933 0 5.312-2.294 5.312-5.122V5.122C17 2.294 14.621 0 11.687 0zm3.718 11.268c0 1.977-1.668 3.585-3.719 3.585H5.314c-2.051 0-3.72-1.608-3.72-3.585V5.122c0-1.977 1.669-3.585 3.72-3.585h6.375c2.05 0 3.718 1.608 3.718 3.585v6.146z" fill="#fff"/><path d="M8.5 4.098c-2.347 0-4.25 1.834-4.25 4.097 0 2.263 1.903 4.098 4.25 4.098s4.25-1.835 4.25-4.098-1.903-4.098-4.25-4.098zm0 6.658c-1.464 0-2.656-1.15-2.656-2.561 0-1.413 1.192-2.56 2.656-2.56 1.464 0 2.656 1.147 2.656 2.56 0 1.412-1.192 2.56-2.656 2.56zM13.069 4.336a.556.556 0 00.566-.546.556.556 0 00-.566-.546.556.556 0 00-.567.546c0 .302.254.546.567.546z" fill="#fff"/></svg><svg fill="none" viewBox="0 0 19 11" id="vk-19" xmlns="http://www.w3.org/2000/svg"><path d="M18.174 8.412c-.414-.436-.884-.827-1.338-1.204-.162-.135-.33-.274-.49-.412-.463-.397-.48-.546-.114-.997.254-.31.523-.622.782-.923.236-.273.48-.556.713-.84l.048-.057c.447-.543.908-1.103 1.154-1.78.064-.178.13-.44-.022-.66-.154-.22-.45-.287-.66-.318a2.051 2.051 0 00-.303-.017l-2.924-.002h-.024c-.442 0-.74.182-.91.559-.164.36-.343.742-.547 1.106-.406.725-.923 1.56-1.67 2.256l-.031.03c-.089.082-.189.177-.262.177a.14.14 0 01-.037-.006c-.155-.053-.258-.382-.254-.535v-.006l-.002-2.966c0-.01 0-.02-.002-.031-.074-.482-.24-.782-.862-.89a.292.292 0 00-.05-.004H7.33c-.495 0-.768.177-1.024.442-.07.07-.214.217-.142.396.072.181.307.22.384.232.38.064.595.268.655.625.106.62.12 1.281.041 2.081a1.57 1.57 0 01-.135.541c-.017.035-.075.146-.135.146-.019 0-.073-.006-.173-.066-.236-.142-.408-.345-.61-.595a13.554 13.554 0 01-1.756-2.86 1.039 1.039 0 00-.97-.623c-.485-.007-.925-.01-1.344-.01-.459 0-.884.004-1.299.011-.355.006-.6.1-.73.278-.13.18-.12.415.025.7 1.17 2.283 2.23 3.942 3.44 5.382.846 1.007 1.695 1.704 2.672 2.194 1.029.516 2.182.768 3.525.768.152 0 .31-.004.468-.01.78-.034 1.07-.282 1.107-.949.017-.34.06-.698.25-1.003.121-.192.234-.192.27-.192.072 0 .16.029.254.083.17.097.316.227.435.341.113.108.224.218.335.327.24.236.488.48.748.712.567.507 1.193.73 1.91.681h2.698a.796.796 0 00.635-.357c.169-.262.165-.596-.01-.894a4.842 4.842 0 00-.679-.86z" fill="#fff"/></svg><svg fill="none" viewBox="0 0 21 15" id="youtube-20" xmlns="http://www.w3.org/2000/svg"><path d="M19.88 2.473c.071.286.13.644.178 1.073.072.43.12.859.144 1.288.023.405.035.787.035 1.145.024.357.036.655.036.894v.322c0 2.146-.131 3.732-.393 4.758-.12.405-.334.763-.644 1.073-.31.31-.68.524-1.11.644-.452.119-1.31.214-2.575.286-1.264.048-2.42.083-3.47.107h-1.574c-4.078 0-6.618-.131-7.62-.393-.93-.263-1.514-.835-1.752-1.717-.12-.454-.215-1.074-.286-1.86C.8 9.281.765 8.601.74 8.052v-.858c0-2.123.131-3.697.394-4.722.119-.43.334-.8.644-1.11.31-.31.68-.524 1.109-.643C3.34.6 4.199.517 5.463.47 6.727.398 7.883.35 8.933.326h1.574c4.078 0 6.618.132 7.62.394.429.12.799.334 1.109.644.31.31.524.68.644 1.109zM8.504 10.128l5.115-2.933-5.115-2.898v5.831z" fill="#fff"/></svg></svg>